{"title":"IMAX Mummies Secrets of the Pharaohs 2007 720p Brrip x264 SSloco","uid":11984760,"size":346301641,"categoryP":"video","categoryS":"hd___movies","magnet":"?xt=urn:btih:f7b1b61acf87659a5d2244b73125340aca96f673&amp;dn=IMAX+Mummies+Secrets+of+the+Pharaohs+2007+720p+Brrip+x264+SSloco&amp;tr=udp%3A%2F%2Ftracker.openbittorrent.com%3A80&amp;tr=udp%3A%2F%2Fopen.demonii.com%3A1337&amp;tr=udp%3A%2F%2Ftracker.coppersurfer.tk%3A6969&amp;tr=udp%3A%2F%2Fexodus.desync.com%3A6969","seeders":0,"leechers":0,"uploader":"myhoes14","files":1,"time":1433323438,"description":"Source:IMAX.Mummies.Secrets.of.the.Pharaohs.2007.720p.BluRay.DTS.x264-SpaceHD\n\n\nMedia Info\n\n\n\nFormat : MPEG-4\nFormat profile : Base Media\nCodec ID : isom\nFile size : 330 MiB\nDuration : 38mn 41s\nOverall bit rate mode : Variable\nOverall bit rate : 1 193 Kbps\nEncoded date : UTC 2015-05-02 00:14:00\nTagged date : UTC 2015-05-02 00:14:00\n\nVideo\nID : 1\nFormat : AVC\nFormat/Info : Advanced Video Codec\nFormat profile : &lt;a class=&quot;__cf_email__&quot; href=&quot;/cdn-cgi/l/email-protection&quot; data-cfemail=&quot;b5fddcd2ddf5f9819b84&quot;&gt;[email&amp;#160;protected]&lt;/a&gt;&lt;script data-cfhash='f9e31' type=&quot;text/javascript&quot;&gt;\n/* &lt;![CDATA[ */!function(){try{var t=&quot;currentScript&quot;in document?document.currentScript:function(){for(var t=document.getElementsByTagName(&quot;script&quot;),e=t.length;e--;)if(t[e].getAttribute(&quot;data-cfhash&quot;))return t[e]}();if(t&amp;&amp;t.previousSibling){var e,r,n,i,c=t.previousSibling,a=c.getAttribute(&quot;data-cfemail&quot;);if(a){for(e=&quot;&quot;,r=parseInt(a.substr(0,2),16),n=2;a.length-n;n+=2)i=parseInt(a.substr(n,2),16)^r,e+=String.fromCharCode(i);e=document.createTextNode(e),c.parentNode.replaceChild(e,c)}t.parentNode.removeChild(t);}}catch(u){}}()/* ]]&gt; */&lt;/script&gt;\nFormat settings, CABAC : Yes\nFormat settings, ReFrames : 4 frames\nCodec ID : avc1\nCodec ID/Info : Advanced Video Coding\nDuration : 38mn 41s\nBit rate : 1 000 Kbps\nMaximum bit rate : 11.1 Mbps\nWidth : 1 280 pixels\nHeight : 720 pixels\nDisplay aspect ratio : 16:9\nFrame rate mode : Constant\nFrame rate : 23.976 fps\nColor space : YUV\nChroma subsampling : 4:2:0\nBit depth : 8 bits\nScan type : Progressive\nBits/(Pixel*Frame) : 0.045\nStream size : 277 MiB (84%)\nWriting library : x264 core 146 r2538 121396c\nEncoding settings : cabac=1 / ref=2 / deblock=1:-1:-1 / analyse=0x3:0x113 / me=hex / subme=6 / psy=1 / psy_rd=1.00:0.15 / mixed_ref=1 / me_range=16 / chroma_me=1 / trellis=1 / 8x8dct=1 / cqm=0 / deadzone=21,11 / fast_pskip=1 / chroma_qp_offset=-3 / threads=6 / lookahead_threads=1 / sliced_threads=0 / nr=0 / decimate=1 / interlaced=0 / bluray_compat=0 / constrained_intra=0 / bframes=3 / b_pyramid=2 / b_adapt=1 / b_bias=0 / direct=1 / weightb=1 / open_gop=0 / weightp=1 / keyint=240 / keyint_min=23 / scenecut=40 / intra_refresh=0 / rc_lookahead=30 / rc=2pass / mbtree=1 / bitrate=1000 / ratetol=1.0 / qcomp=0.60 / qpmin=0 / qpmax=69 / qpstep=4 / cplxblur=20.0 / qblur=0.5 / vbv_maxrate=62500 / vbv_bufsize=78125 / nal_hrd=none / filler=0 / ip_ratio=1.40 / aq=1:1.00\nEncoded date : UTC 2015-05-02 00:14:00\nTagged date : UTC 2015-05-02 00:16:17\nColor primaries : BT.709\nTransfer characteristics : BT.709\nMatrix coefficients : BT.709\nColor range : Limited\n\nAudio\nID : 2\nFormat : AAC\nFormat/Info : Advanced Audio Codec\nFormat profile : HE-AAC / LC\nCodec ID : 40\nDuration : 38mn 41s\nBit rate mode : Variable\nBit rate : 192 Kbps\nMaximum bit rate : 257 Kbps\nChannel(s) : 6 channels\nChannel positions : Front: L C R, Side: L R, LFE\nSampling rate : 48.0 KHz / 24.0 KHz\nCompression mode : Lossy\nStream size : 52.7 MiB (16%)\nLanguage : English\nEncoded date : UTC 2015-05-02 00:10:34\nTagged date : UTC 2015-05-02 00:16:17","torrent":{"xt":"urn:btih:f7b1b61acf87659a5d2244b73125340aca96f673","amp;dn":"IMAX+Mummies+Secrets+of+the+Pharaohs+2007+720p+Brrip+x264+SSloco","amp;tr":["udp%3A%2F%2Ftracker.openbittorrent.com%3A80","udp%3A%2F%2Fopen.demonii.com%3A1337","udp%3A%2F%2Ftracker.coppersurfer.tk%3A6969","udp%3A%2F%2Fexodus.desync.com%3A6969"],"infoHash":"f7b1b61acf87659a5d2244b73125340aca96f673","infoHashBuffer":{"type":"Buffer","data":[247,177,182,26,207,135,101,154,93,34,68,183,49,37,52,10,202,150,246,115]},"announce":[],"urlList":[]}}